<svg width="206" height="14" viewBox="0 0 206 14" fill="none" xmlns="http://www.w3.org/2000/svg">
<path fill-rule="evenodd" clip-rule="evenodd" d="M199.045 -0.00012207L205.683 6.63792L199.045 13.276L198.098 12.3284L203.788 6.63792L198.098 0.947445L199.045 -0.00012207Z" fill="white"/>
<path fill-rule="evenodd" clip-rule="evenodd" d="M204.736 7.30772L164.228 7.30771L164.228 5.96765L204.736 5.96765L204.736 7.30772Z" fill="white"/>
<path fill-rule="evenodd" clip-rule="evenodd" d="M6.63807 13.2761L2.308e-05 6.63808L6.63807 3.84663e-05L7.58563 0.947606L1.89516 6.63808L7.58563 12.3286L6.63807 13.2761Z" fill="white"/>
<path fill-rule="evenodd" clip-rule="evenodd" d="M0.94758 5.96816L41.4556 5.96817L41.4556 7.30823L0.94758 7.30822L0.94758 5.96816Z" fill="white"/>
<rect x="125.164" y="1.4563" width="9.56667" height="9.56667" rx="4.78333" fill="white"/>
<rect x="98.0583" y="1.4563" width="9.56667" height="9.56667" rx="4.78333" fill="white" fill-opacity="0.3"/>
<rect x="70.9528" y="1.45618" width="9.56667" height="9.56667" rx="4.78333" fill="white" fill-opacity="0.3"/>
</svg>
